<svg viewBox="0 0 14 14" xmlns="http://www.w3.org/2000/svg" xmlns:xlink="http://www.w3.org/1999/xlink" width="14.000000" height="14.000000" fill="none" customFrame="#000000">
	<path id="Vector 1" d="M10 1C10 0.447693 9.55228 0 9 0L1 0C0.447716 0 0 0.447693 0 1L0 9C0 9.55231 0.447716 10 1 10L2 10L2 11C2 11.5523 2.44772 12 3 12L4 12L4 13C4 13.5523 4.44772 14 5 14L13 14C13.5523 14 14 13.5523 14 13L14 5C14 4.44769 13.5523 4 13 4L12 4L12 3C12 2.44769 11.5523 2 11 2L10 2L10 1ZM10 5L13 5L13 7.49999L13 13L5 13L5 11L5 10L5 5C5.55228 5 10 5 10 5ZM9 4L11 4L11 3L3 3L3 9L3 11L4 11L4 5C4 4.44769 4.44772 4 5 4L9 4ZM3 2L9 2L9 1L1 1L1 9L2 9L2 3C2 2.44769 2.44772 2 3 2Z" fill="rgb(0,25,28)" fill-rule="evenodd" />
</svg>
